<svg t="1560328308656" class="icon" style="" viewBox="0 0 1024 1024" version="1.1" xmlns="http://www.w3.org/2000/svg" p-id="13249" xmlns:xlink="http://www.w3.org/1999/xlink" width="200" height="200"><defs><style type="text/css"></style></defs><path d="M89.6705 906.182a28.1475 28.1475 0 0 0 28.152 28.143h788.3505a28.143 28.143 0 0 0 28.152-28.143v-168.9435H89.6705v168.9435z m450.486-112.626h281.5515a28.152 28.152 0 0 1 0 56.304h-281.5515a28.152 28.152 0 0 1 0-56.304z m-323.7795-14.0805c23.3235 0 42.228 18.9045 42.228 42.2325s-18.9045 42.2325-42.228 42.2325c-23.328 0-42.237-18.9045-42.237-42.2325s18.909-42.2325 42.237-42.2325z m640.53-661.6485a40.815 40.815 0 0 0-35.1945-28.152H202.292a42.237 42.237 0 0 0-36.5985 28.152L113.606 230.4485h796.7925l-53.4915-112.6215zM89.6705 680.9345H934.325V512H89.6705v168.9345z m450.486-112.6215h281.5515a28.1565 28.1565 0 0 1 28.152 28.161 28.152 28.152 0 0 1-28.152 28.152h-281.5515a28.152 28.152 0 0 1-28.152-28.152 28.152 28.152 0 0 1 28.152-28.161z m-323.7795-14.0805c23.3235 0 42.228 18.9135 42.228 42.2415s-18.9045 42.2325-42.228 42.2325c-23.328 0-42.237-18.9045-42.237-42.2325s18.909-42.2415 42.237-42.2415zM89.6705 286.7615v168.93H934.325v-168.93H89.6705z m126.7065 126.6975a42.2325 42.2325 0 1 1-0.0045-84.465 42.2325 42.2325 0 0 1 0.0045 84.465z m605.331-14.076h-281.5515a28.152 28.152 0 0 1 0-56.3085h281.5515a28.152 28.152 0 0 1 0 56.3085z" p-id="13250"></path></svg>