<svg t="1560327525392" class="icon" style="" viewBox="0 0 1024 1024" version="1.1" xmlns="http://www.w3.org/2000/svg" p-id="11149" xmlns:xlink="http://www.w3.org/1999/xlink" width="200" height="200"><defs><style type="text/css"></style></defs><path d="M822.912657 63.762209 204.048791 63.762209c-56.901964 0-103.164614 46.252417-103.164614 103.144148l0 593.093946c0 56.870242 46.26265 103.144148 103.164614 103.144148l618.863866 0c56.913221 0 103.165638-46.273906 103.165638-103.144148L926.078295 166.906357C926.078295 110.014626 879.825878 63.762209 822.912657 63.762209zM874.496499 760.001327c0 28.434609-23.127743 51.581796-51.583842 51.581796L204.048791 811.583123c-28.457122 0-51.582819-23.147186-51.582819-51.581796L152.465972 166.906357c0-28.457122 23.12672-51.581796 51.582819-51.581796l618.863866 0c28.457122 0 51.583842 23.125697 51.583842 51.582819L874.496499 760.001327zM771.351328 244.259096 332.984349 244.259096c-14.270005 0-25.811876 11.56336-25.811876 25.792433 0 14.248516 11.541871 25.790386 25.811876 25.790386L771.351328 295.841915c14.249539 0 25.791409-11.541871 25.791409-25.791409C797.142737 255.822456 785.600867 244.259096 771.351328 244.259096zM771.351328 373.195677 332.984349 373.195677c-14.270005 0-25.811876 11.562337-25.811876 25.790386 0 14.249539 11.541871 25.791409 25.811876 25.791409L771.351328 424.777473c14.249539 0 25.791409-11.541871 25.791409-25.791409C797.142737 384.756991 785.600867 373.195677 771.351328 373.195677zM771.351328 502.130212 332.984349 502.130212c-14.270005 0-25.811876 11.56336-25.811876 25.792433 0 14.248516 11.541871 25.789363 25.811876 25.789363L771.351328 553.712007c14.249539 0 25.791409-11.540847 25.791409-25.789363C797.142737 513.693572 785.600867 502.130212 771.351328 502.130212zM771.351328 631.064746 332.984349 631.064746c-14.270005 0-25.811876 11.541871-25.811876 25.792433 0 14.249539 11.541871 25.791409 25.811876 25.791409L771.351328 682.648588c14.249539 0 25.791409-11.541871 25.791409-25.791409C797.142737 642.606617 785.600867 631.064746 771.351328 631.064746zM229.819734 295.841915l51.581796 0 0-51.582819-51.581796 0L229.819734 295.841915zM229.819734 424.777473l51.581796 0 0-51.581796-51.581796 0L229.819734 424.777473zM229.819734 553.712007l51.581796 0 0-51.581796-51.581796 0L229.819734 553.712007zM229.819734 682.648588l51.581796 0 0-51.583842-51.581796 0L229.819734 682.648588z" p-id="11150"></path></svg>